<svg width="531" height="217" viewBox="0 0 531 217" fill="none" xmlns="http://www.w3.org/2000/svg">
<g filter="url(#filter0_d_1616_144)">
<g filter="url(#filter1_d_1616_144)">
<mask id="path-1-inside-1_1616_144" fill="white">
<path d="M104 8H115.314L121.349 8.50286L129.394 9.76L136.686 11.52L142.469 13.5314L147.497 15.7943L153.029 18.56L158.811 21.8286L162.08 23.84L164.343 25.6L164.846 26.6057L163.588 26.3543L156.548 23.0857L149.509 20.5714L143.726 19.0629L138.446 18.0571L134.171 17.5543L128.64 17.3029H121.6L114.309 17.8057L108.274 18.8114L101.234 20.5714L95.4514 22.5828L89.1657 25.3486L84.8914 27.6114L80.8685 30.1257L76.8457 32.8914L74.3314 34.9028L71.5657 37.1657L69.0514 39.4286L67.04 41.1886L64.2743 43.9543L62.5143 45.9657L59.4971 49.7371L56.48 54.0114L52.7086 60.2971L49.6914 66.08L47.1771 72.1143L45.1657 78.4L43.9086 84.1828L42.6514 91.4742L42.1486 96.5028V104.297L42.9028 111.086L44.4114 119.131L45.92 124.914L47.9314 130.697L50.4457 136.48L53.2114 141.76L55.9771 146.286L58.4914 149.806L61.2571 153.326L64.0228 156.343L65.7828 158.354L68.8 161.371L70.8114 163.131L74.3314 166.148L78.8571 169.417L83.3828 172.183L89.4171 175.451L94.4457 177.714L103.497 180.731L111.04 182.491L115.566 183.246L118.08 183.497H132.663L138.949 182.743L144.983 181.486L153.28 178.971L158.308 176.96L162.331 174.948L164.091 174.446L164.343 174.948L163.086 176.206L158.308 179.223L153.029 182.24L146.743 185.257L139.451 188.023L134.171 189.783L128.137 191.291L121.349 192.297L115.817 192.8H99.4742L92.9371 192.046L86.1485 190.537L80.1143 188.777L73.0743 186.011L65.7828 182.491L61.0057 179.977L55.9771 176.708L52.4571 174.194L48.4343 170.926L45.6686 168.663L39.8857 162.88L37.6228 160.114L34.8571 156.594L32.0914 152.823L29.0743 148.046L26.0571 142.766L23.04 136.229L21.0286 130.949L19.2686 124.663L17.5086 117.12L16.2514 109.577L16 106.56V94.9942L16.2514 90.72L17.76 81.6685L19.7714 73.6228L22.0343 67.0857L24.5486 61.3028L26.56 57.0285L30.08 50.9943L32.5943 47.2228L35.1086 43.9543L38.3771 39.9314L42.1486 35.9086L48.1828 29.8743L52.4571 26.6057L56.48 23.5886L61.76 20.32L68.2971 16.8L73.3257 14.5371L78.6057 12.5257L82.3771 11.2686L89.6685 9.50857L95.9542 8.50286L98.4685 8.25143L104 8Z"/>
</mask>
<path d="M104 8H115.314L121.349 8.50286L129.394 9.76L136.686 11.52L142.469 13.5314L147.497 15.7943L153.029 18.56L158.811 21.8286L162.08 23.84L164.343 25.6L164.846 26.6057L163.588 26.3543L156.548 23.0857L149.509 20.5714L143.726 19.0629L138.446 18.0571L134.171 17.5543L128.64 17.3029H121.6L114.309 17.8057L108.274 18.8114L101.234 20.5714L95.4514 22.5828L89.1657 25.3486L84.8914 27.6114L80.8685 30.1257L76.8457 32.8914L74.3314 34.9028L71.5657 37.1657L69.0514 39.4286L67.04 41.1886L64.2743 43.9543L62.5143 45.9657L59.4971 49.7371L56.48 54.0114L52.7086 60.2971L49.6914 66.08L47.1771 72.1143L45.1657 78.4L43.9086 84.1828L42.6514 91.4742L42.1486 96.5028V104.297L42.9028 111.086L44.4114 119.131L45.92 124.914L47.9314 130.697L50.4457 136.48L53.2114 141.76L55.9771 146.286L58.4914 149.806L61.2571 153.326L64.0228 156.343L65.7828 158.354L68.8 161.371L70.8114 163.131L74.3314 166.148L78.8571 169.417L83.3828 172.183L89.4171 175.451L94.4457 177.714L103.497 180.731L111.04 182.491L115.566 183.246L118.08 183.497H132.663L138.949 182.743L144.983 181.486L153.28 178.971L158.308 176.96L162.331 174.948L164.091 174.446L164.343 174.948L163.086 176.206L158.308 179.223L153.029 182.24L146.743 185.257L139.451 188.023L134.171 189.783L128.137 191.291L121.349 192.297L115.817 192.8H99.4742L92.9371 192.046L86.1485 190.537L80.1143 188.777L73.0743 186.011L65.7828 182.491L61.0057 179.977L55.9771 176.708L52.4571 174.194L48.4343 170.926L45.6686 168.663L39.8857 162.88L37.6228 160.114L34.8571 156.594L32.0914 152.823L29.0743 148.046L26.0571 142.766L23.04 136.229L21.0286 130.949L19.2686 124.663L17.5086 117.12L16.2514 109.577L16 106.56V94.9942L16.2514 90.72L17.76 81.6685L19.7714 73.6228L22.0343 67.0857L24.5486 61.3028L26.56 57.0285L30.08 50.9943L32.5943 47.2228L35.1086 43.9543L38.3771 39.9314L42.1486 35.9086L48.1828 29.8743L52.4571 26.6057L56.48 23.5886L61.76 20.32L68.2971 16.8L73.3257 14.5371L78.6057 12.5257L82.3771 11.2686L89.6685 9.50857L95.9542 8.50286L98.4685 8.25143L104 8Z" fill="#47A138"/>
<path d="M104 8H115.314L121.349 8.50286L129.394 9.76L136.686 11.52L142.469 13.5314L147.497 15.7943L153.029 18.56L158.811 21.8286L162.08 23.84L164.343 25.6L164.846 26.6057L163.588 26.3543L156.548 23.0857L149.509 20.5714L143.726 19.0629L138.446 18.0571L134.171 17.5543L128.64 17.3029H121.6L114.309 17.8057L108.274 18.8114L101.234 20.5714L95.4514 22.5828L89.1657 25.3486L84.8914 27.6114L80.8685 30.1257L76.8457 32.8914L74.3314 34.9028L71.5657 37.1657L69.0514 39.4286L67.04 41.1886L64.2743 43.9543L62.5143 45.9657L59.4971 49.7371L56.48 54.0114L52.7086 60.2971L49.6914 66.08L47.1771 72.1143L45.1657 78.4L43.9086 84.1828L42.6514 91.4742L42.1486 96.5028V104.297L42.9028 111.086L44.4114 119.131L45.92 124.914L47.9314 130.697L50.4457 136.48L53.2114 141.76L55.9771 146.286L58.4914 149.806L61.2571 153.326L64.0228 156.343L65.7828 158.354L68.8 161.371L70.8114 163.131L74.3314 166.148L78.8571 169.417L83.3828 172.183L89.4171 175.451L94.4457 177.714L103.497 180.731L111.04 182.491L115.566 183.246L118.08 183.497H132.663L138.949 182.743L144.983 181.486L153.28 178.971L158.308 176.96L162.331 174.948L164.091 174.446L164.343 174.948L163.086 176.206L158.308 179.223L153.029 182.24L146.743 185.257L139.451 188.023L134.171 189.783L128.137 191.291L121.349 192.297L115.817 192.8H99.4742L92.9371 192.046L86.1485 190.537L80.1143 188.777L73.0743 186.011L65.7828 182.491L61.0057 179.977L55.9771 176.708L52.4571 174.194L48.4343 170.926L45.6686 168.663L39.8857 162.88L37.6228 160.114L34.8571 156.594L32.0914 152.823L29.0743 148.046L26.0571 142.766L23.04 136.229L21.0286 130.949L19.2686 124.663L17.5086 117.12L16.2514 109.577L16 106.56V94.9942L16.2514 90.72L17.76 81.6685L19.7714 73.6228L22.0343 67.0857L24.5486 61.3028L26.56 57.0285L30.08 50.9943L32.5943 47.2228L35.1086 43.9543L38.3771 39.9314L42.1486 35.9086L48.1828 29.8743L52.4571 26.6057L56.48 23.5886L61.76 20.32L68.2971 16.8L73.3257 14.5371L78.6057 12.5257L82.3771 11.2686L89.6685 9.50857L95.9542 8.50286L98.4685 8.25143L104 8Z" stroke="#EEF1F9" stroke-width="4" mask="url(#path-1-inside-1_1616_144)"/>
</g>
<g filter="url(#filter2_d_1616_144)">
<mask id="path-2-inside-2_1616_144" fill="white">
<path d="M121.351 26.6055H134.928L142.722 27.3597L149.762 28.8683L158.059 31.634L162.836 33.8969L168.871 37.4168L172.642 39.9311L175.911 42.4454L179.431 45.4625L185.213 51.2453L187.476 54.011L190.242 57.531L193.259 62.3081L195.773 66.8338L197.785 71.108L200.048 77.3937L201.556 82.6737L202.813 89.2108L203.065 92.2279V108.068L202.562 112.845L201.053 119.633L199.293 125.416L196.779 131.702L194.768 135.725L192.505 139.748L188.985 144.776L185.716 148.799L182.699 152.068L178.425 156.342L175.659 158.605L171.888 161.37L166.356 164.89L159.568 168.41L152.276 171.176L146.996 172.685L141.968 173.69L135.431 174.445H125.122L119.088 173.942L113.054 172.936L105.511 170.925L98.9739 168.41L92.6882 165.393L89.1683 163.382L85.6483 160.867L84.6426 160.113V159.61L86.1511 159.862L89.9225 161.622L93.6939 163.13L101.488 165.393L109.031 166.65L112.048 166.902H122.608L128.642 165.896L135.431 164.136L140.962 162.125L147.248 159.107L152.528 156.09L155.545 154.079L158.059 152.068L160.574 149.805L166.356 144.022L169.122 140.502L172.139 136.228L174.402 132.205L177.419 125.919L179.179 121.142L180.688 115.359L181.945 108.822L182.448 105.554V95.9993L181.191 87.7022L179.431 80.6623L176.916 73.8737L174.905 69.8509L172.893 66.0795L170.631 62.5595L168.116 59.291L165.351 56.0224L161.831 52.251L158.562 49.2339L154.791 46.4682L150.516 43.7025L145.236 40.6854L140.208 38.4225L133.419 36.1597L127.888 34.9026L122.105 34.1483H109.534L103.5 34.9026L98.9739 35.9083L92.1854 38.1711L86.9054 40.434H85.6483L85.8997 39.4282L89.9225 37.1654L95.9568 33.8969L101.488 31.3826L109.785 28.6169L116.825 27.1083L121.351 26.6055Z"/>
</mask>
<path d="M121.351 26.6055H134.928L142.722 27.3597L149.762 28.8683L158.059 31.634L162.836 33.8969L168.871 37.4168L172.642 39.9311L175.911 42.4454L179.431 45.4625L185.213 51.2453L187.476 54.011L190.242 57.531L193.259 62.3081L195.773 66.8338L197.785 71.108L200.048 77.3937L201.556 82.6737L202.813 89.2108L203.065 92.2279V108.068L202.562 112.845L201.053 119.633L199.293 125.416L196.779 131.702L194.768 135.725L192.505 139.748L188.985 144.776L185.716 148.799L182.699 152.068L178.425 156.342L175.659 158.605L171.888 161.37L166.356 164.89L159.568 168.41L152.276 171.176L146.996 172.685L141.968 173.69L135.431 174.445H125.122L119.088 173.942L113.054 172.936L105.511 170.925L98.9739 168.41L92.6882 165.393L89.1683 163.382L85.6483 160.867L84.6426 160.113V159.61L86.1511 159.862L89.9225 161.622L93.6939 163.13L101.488 165.393L109.031 166.65L112.048 166.902H122.608L128.642 165.896L135.431 164.136L140.962 162.125L147.248 159.107L152.528 156.09L155.545 154.079L158.059 152.068L160.574 149.805L166.356 144.022L169.122 140.502L172.139 136.228L174.402 132.205L177.419 125.919L179.179 121.142L180.688 115.359L181.945 108.822L182.448 105.554V95.9993L181.191 87.7022L179.431 80.6623L176.916 73.8737L174.905 69.8509L172.893 66.0795L170.631 62.5595L168.116 59.291L165.351 56.0224L161.831 52.251L158.562 49.2339L154.791 46.4682L150.516 43.7025L145.236 40.6854L140.208 38.4225L133.419 36.1597L127.888 34.9026L122.105 34.1483H109.534L103.5 34.9026L98.9739 35.9083L92.1854 38.1711L86.9054 40.434H85.6483L85.8997 39.4282L89.9225 37.1654L95.9568 33.8969L101.488 31.3826L109.785 28.6169L116.825 27.1083L121.351 26.6055Z" fill="#47A138"/>
<path d="M121.351 26.6055H134.928L142.722 27.3597L149.762 28.8683L158.059 31.634L162.836 33.8969L168.871 37.4168L172.642 39.9311L175.911 42.4454L179.431 45.4625L185.213 51.2453L187.476 54.011L190.242 57.531L193.259 62.3081L195.773 66.8338L197.785 71.108L200.048 77.3937L201.556 82.6737L202.813 89.2108L203.065 92.2279V108.068L202.562 112.845L201.053 119.633L199.293 125.416L196.779 131.702L194.768 135.725L192.505 139.748L188.985 144.776L185.716 148.799L182.699 152.068L178.425 156.342L175.659 158.605L171.888 161.37L166.356 164.89L159.568 168.41L152.276 171.176L146.996 172.685L141.968 173.69L135.431 174.445H125.122L119.088 173.942L113.054 172.936L105.511 170.925L98.9739 168.41L92.6882 165.393L89.1683 163.382L85.6483 160.867L84.6426 160.113V159.61L86.1511 159.862L89.9225 161.622L93.6939 163.13L101.488 165.393L109.031 166.65L112.048 166.902H122.608L128.642 165.896L135.431 164.136L140.962 162.125L147.248 159.107L152.528 156.09L155.545 154.079L158.059 152.068L160.574 149.805L166.356 144.022L169.122 140.502L172.139 136.228L174.402 132.205L177.419 125.919L179.179 121.142L180.688 115.359L181.945 108.822L182.448 105.554V95.9993L181.191 87.7022L179.431 80.6623L176.916 73.8737L174.905 69.8509L172.893 66.0795L170.631 62.5595L168.116 59.291L165.351 56.0224L161.831 52.251L158.562 49.2339L154.791 46.4682L150.516 43.7025L145.236 40.6854L140.208 38.4225L133.419 36.1597L127.888 34.9026L122.105 34.1483H109.534L103.5 34.9026L98.9739 35.9083L92.1854 38.1711L86.9054 40.434H85.6483L85.8997 39.4282L89.9225 37.1654L95.9568 33.8969L101.488 31.3826L109.785 28.6169L116.825 27.1083L121.351 26.6055Z" stroke="#EEF1F9" stroke-width="4" mask="url(#path-2-inside-2_1616_144)"/>
</g>
<g filter="url(#filter3_d_1616_144)">
<path d="M67.5439 80.6621H72.8238L73.0752 80.9135V98.0104H101.235L101.486 80.9135H105.258L106.263 81.165V119.884H101.486V105.05L101.738 103.29H73.0752L73.3266 113.599V119.633L73.0752 119.884H67.2924L67.041 81.4164L67.5439 80.6621Z" fill="#EEF1F9"/>
</g>
<g filter="url(#filter4_d_1616_144)">
<path d="M125.123 81.166H141.215L152.277 81.4174V83.6803L152.026 86.4459L140.46 86.6974L135.432 86.9488L135.18 119.383L134.929 119.634H129.398L129.146 119.383V86.6974H114.061L112.301 86.1945V82.6746L112.552 81.4174L125.123 81.166Z" fill="#EEF1F9"/>
</g>
<g filter="url(#filter5_d_1616_144)">
<path d="M302.88 61H337.577L344.115 61.5029L347.635 62.2571L352.16 64.0171L355.68 66.28L358.195 68.5429L359.955 70.8057L361.715 74.3257L362.469 77.0914L362.72 78.6V83.1257L361.715 87.1486L359.955 90.4171L357.44 93.4343L354.423 95.6971L351.155 96.9543L347.886 97.96L353.417 99.72L357.44 101.731L360.206 103.743L362.217 106.006L363.977 109.023L365.235 112.291L365.737 114.806V120.84L364.983 124.36L362.972 128.383L360.96 131.149L358.195 133.914L354.172 136.429L351.406 137.686L346.629 138.943L342.355 139.446L336.069 139.697H302.88L302.629 139.194V61.7543L302.88 61ZM321.989 76.0857L321.737 88.1543V93.1828L326.515 93.4343H332.046L335.817 93.1828L338.332 92.1771L340.343 90.92L341.6 89.6628L342.606 88.4057L343.109 86.8971V82.6228L342.103 80.1086L340.092 77.8457L338.08 76.84L336.069 76.3371L333.303 76.0857H321.989ZM321.737 105.503V123.606L321.989 124.36L323.749 124.611H329.532L335.566 124.36L339.84 123.606L343.36 121.846L344.869 119.834L345.875 116.566V113.549L344.617 110.28L342.355 107.766L340.343 106.509L337.577 105.754L334.56 105.503H321.737Z" fill="#EEF1F9"/>
</g>
<g filter="url(#filter6_d_1616_144)">
<path d="M221.672 61H237.512L240.78 61.2514L241.032 67.2857V78.3486L240.78 92.68H271.706V61.5029L271.958 61H281.512L290.815 61.2514L291.066 61.5029V77.0914L290.815 139.446L282.518 139.697H272.209L271.958 139.446L271.706 136.177V108.017H240.78V139.446L229.215 139.697H222.426L221.672 139.446V61Z" fill="#EEF1F9"/>
</g>
<mask id="path-7-outside-3_1616_144" maskUnits="userSpaceOnUse" x="368" y="79" width="147" height="64" fill="black">
<rect fill="white" x="368" y="79" width="147" height="64"/>
<path d="M385.406 140.824C382.621 140.824 380.14 140.341 377.962 139.375C375.784 138.39 374.061 136.941 372.792 135.028C371.542 133.097 370.917 130.691 370.917 127.812C370.917 125.388 371.362 123.352 372.252 121.705C373.142 120.057 374.354 118.731 375.888 117.727C377.423 116.723 379.165 115.966 381.116 115.455C383.085 114.943 385.15 114.583 387.309 114.375C389.847 114.11 391.892 113.864 393.445 113.636C394.998 113.39 396.125 113.03 396.826 112.557C397.527 112.083 397.877 111.383 397.877 110.455V110.284C397.877 108.485 397.309 107.093 396.173 106.108C395.055 105.123 393.464 104.631 391.4 104.631C389.222 104.631 387.489 105.114 386.201 106.08C384.913 107.027 384.061 108.22 383.644 109.659L372.451 108.75C373.019 106.098 374.137 103.807 375.803 101.875C377.47 99.9242 379.62 98.428 382.252 97.3864C384.904 96.3258 387.972 95.7955 391.457 95.7955C393.881 95.7955 396.201 96.0795 398.417 96.6477C400.652 97.2159 402.631 98.0966 404.354 99.2898C406.097 100.483 407.47 102.017 408.474 103.892C409.478 105.748 409.979 107.973 409.979 110.568V140H398.502V133.949H398.161C397.46 135.312 396.523 136.515 395.349 137.557C394.174 138.58 392.763 139.384 391.116 139.972C389.468 140.54 387.565 140.824 385.406 140.824ZM388.871 132.472C390.652 132.472 392.224 132.121 393.587 131.42C394.951 130.701 396.021 129.735 396.798 128.523C397.574 127.311 397.962 125.937 397.962 124.403V119.773C397.584 120.019 397.063 120.246 396.4 120.455C395.756 120.644 395.027 120.824 394.212 120.994C393.398 121.146 392.584 121.288 391.769 121.42C390.955 121.534 390.216 121.638 389.553 121.733C388.133 121.941 386.892 122.273 385.832 122.727C384.771 123.182 383.947 123.797 383.36 124.574C382.773 125.331 382.479 126.278 382.479 127.415C382.479 129.062 383.076 130.322 384.269 131.193C385.481 132.045 387.015 132.472 388.871 132.472ZM431.471 114.773V140H419.369V96.3636H430.903V104.062H431.414C432.38 101.525 433.999 99.517 436.272 98.0398C438.545 96.5436 441.3 95.7955 444.539 95.7955C447.569 95.7955 450.211 96.4583 452.465 97.7841C454.719 99.1098 456.471 101.004 457.721 103.466C458.971 105.909 459.596 108.826 459.596 112.216V140H447.494V114.375C447.513 111.705 446.831 109.621 445.448 108.125C444.066 106.61 442.162 105.852 439.738 105.852C438.109 105.852 436.67 106.203 435.42 106.903C434.189 107.604 433.223 108.627 432.522 109.972C431.84 111.297 431.49 112.898 431.471 114.773ZM480.1 127.443L480.129 112.926H481.89L495.867 96.3636H509.759L490.981 118.295H488.112L480.1 127.443ZM469.134 140V81.8182H481.237V140H469.134ZM496.407 140L483.566 120.994L491.634 112.443L510.583 140H496.407Z"/>
</mask>
<path d="M385.406 140.824C382.621 140.824 380.14 140.341 377.962 139.375C375.784 138.39 374.061 136.941 372.792 135.028C371.542 133.097 370.917 130.691 370.917 127.812C370.917 125.388 371.362 123.352 372.252 121.705C373.142 120.057 374.354 118.731 375.888 117.727C377.423 116.723 379.165 115.966 381.116 115.455C383.085 114.943 385.15 114.583 387.309 114.375C389.847 114.11 391.892 113.864 393.445 113.636C394.998 113.39 396.125 113.03 396.826 112.557C397.527 112.083 397.877 111.383 397.877 110.455V110.284C397.877 108.485 397.309 107.093 396.173 106.108C395.055 105.123 393.464 104.631 391.4 104.631C389.222 104.631 387.489 105.114 386.201 106.08C384.913 107.027 384.061 108.22 383.644 109.659L372.451 108.75C373.019 106.098 374.137 103.807 375.803 101.875C377.47 99.9242 379.62 98.428 382.252 97.3864C384.904 96.3258 387.972 95.7955 391.457 95.7955C393.881 95.7955 396.201 96.0795 398.417 96.6477C400.652 97.2159 402.631 98.0966 404.354 99.2898C406.097 100.483 407.47 102.017 408.474 103.892C409.478 105.748 409.979 107.973 409.979 110.568V140H398.502V133.949H398.161C397.46 135.312 396.523 136.515 395.349 137.557C394.174 138.58 392.763 139.384 391.116 139.972C389.468 140.54 387.565 140.824 385.406 140.824ZM388.871 132.472C390.652 132.472 392.224 132.121 393.587 131.42C394.951 130.701 396.021 129.735 396.798 128.523C397.574 127.311 397.962 125.937 397.962 124.403V119.773C397.584 120.019 397.063 120.246 396.4 120.455C395.756 120.644 395.027 120.824 394.212 120.994C393.398 121.146 392.584 121.288 391.769 121.42C390.955 121.534 390.216 121.638 389.553 121.733C388.133 121.941 386.892 122.273 385.832 122.727C384.771 123.182 383.947 123.797 383.36 124.574C382.773 125.331 382.479 126.278 382.479 127.415C382.479 129.062 383.076 130.322 384.269 131.193C385.481 132.045 387.015 132.472 388.871 132.472ZM431.471 114.773V140H419.369V96.3636H430.903V104.062H431.414C432.38 101.525 433.999 99.517 436.272 98.0398C438.545 96.5436 441.3 95.7955 444.539 95.7955C447.569 95.7955 450.211 96.4583 452.465 97.7841C454.719 99.1098 456.471 101.004 457.721 103.466C458.971 105.909 459.596 108.826 459.596 112.216V140H447.494V114.375C447.513 111.705 446.831 109.621 445.448 108.125C444.066 106.61 442.162 105.852 439.738 105.852C438.109 105.852 436.67 106.203 435.42 106.903C434.189 107.604 433.223 108.627 432.522 109.972C431.84 111.297 431.49 112.898 431.471 114.773ZM480.1 127.443L480.129 112.926H481.89L495.867 96.3636H509.759L490.981 118.295H488.112L480.1 127.443ZM469.134 140V81.8182H481.237V140H469.134ZM496.407 140L483.566 120.994L491.634 112.443L510.583 140H496.407Z" fill="#47A138"/>
<path d="M377.962 139.375L377.138 141.197L377.145 141.2L377.152 141.203L377.962 139.375ZM372.792 135.028L371.113 136.115L371.119 136.124L371.125 136.134L372.792 135.028ZM372.252 121.705L370.492 120.754L370.492 120.754L372.252 121.705ZM375.888 117.727L374.793 116.054L374.793 116.054L375.888 117.727ZM381.116 115.455L380.613 113.519L380.609 113.52L381.116 115.455ZM387.309 114.375L387.501 116.366L387.509 116.365L387.517 116.364L387.309 114.375ZM393.445 113.636L393.735 115.615L393.747 115.614L393.758 115.612L393.445 113.636ZM396.826 112.557L395.706 110.9L395.706 110.9L396.826 112.557ZM396.173 106.108L394.85 107.608L394.856 107.614L394.863 107.619L396.173 106.108ZM386.201 106.08L387.386 107.691L387.393 107.685L387.401 107.68L386.201 106.08ZM383.644 109.659L383.482 111.653L385.111 111.785L385.565 110.215L383.644 109.659ZM372.451 108.75L370.495 108.331L370.018 110.559L372.289 110.743L372.451 108.75ZM375.803 101.875L377.318 103.181L377.324 103.174L375.803 101.875ZM382.252 97.3864L382.988 99.2461L382.995 99.2433L382.252 97.3864ZM398.417 96.6477L397.92 98.5851L397.924 98.5861L398.417 96.6477ZM404.354 99.2898L403.216 100.934L403.224 100.94L404.354 99.2898ZM408.474 103.892L406.71 104.836L406.715 104.843L408.474 103.892ZM409.979 140V142H411.979V140H409.979ZM398.502 140H396.502V142H398.502V140ZM398.502 133.949H400.502V131.949H398.502V133.949ZM398.161 133.949V131.949H396.94L396.382 133.035L398.161 133.949ZM395.349 137.557L396.662 139.065L396.669 139.059L396.676 139.053L395.349 137.557ZM391.116 139.972L391.768 141.862L391.777 141.859L391.787 141.856L391.116 139.972ZM393.587 131.42L394.501 133.199L394.511 133.194L394.521 133.189L393.587 131.42ZM396.798 128.523L395.114 127.444L395.114 127.444L396.798 128.523ZM397.962 119.773H399.962V116.087L396.872 118.096L397.962 119.773ZM396.4 120.455L396.964 122.373L396.982 122.368L397 122.363L396.4 120.455ZM394.212 120.994L394.578 122.961L394.6 122.956L394.622 122.952L394.212 120.994ZM391.769 121.42L392.046 123.401L392.068 123.398L392.091 123.394L391.769 121.42ZM389.553 121.733L389.27 119.753L389.263 119.754L389.553 121.733ZM385.832 122.727L386.62 124.566L386.62 124.566L385.832 122.727ZM383.36 124.574L384.941 125.799L384.948 125.79L384.955 125.78L383.36 124.574ZM384.269 131.193L383.09 132.808L383.104 132.819L383.119 132.829L384.269 131.193ZM385.406 138.824C382.854 138.824 380.656 138.382 378.773 137.547L377.152 141.203C379.624 142.3 382.389 142.824 385.406 142.824V138.824ZM378.786 137.553C376.936 136.716 375.511 135.509 374.459 133.923L371.125 136.134C372.611 138.374 374.633 140.064 377.138 141.197L378.786 137.553ZM374.471 133.942C373.477 132.406 372.917 130.402 372.917 127.812H368.917C368.917 130.98 369.606 133.787 371.113 136.115L374.471 133.942ZM372.917 127.812C372.917 125.625 373.319 123.937 374.012 122.655L370.492 120.754C369.405 122.767 368.917 125.151 368.917 127.812H372.917ZM374.012 122.655C374.747 121.293 375.734 120.219 376.984 119.401L374.793 116.054C372.975 117.244 371.537 118.82 370.492 120.754L374.012 122.655ZM376.984 119.401C378.32 118.526 379.86 117.851 381.623 117.389L380.609 113.52C378.47 114.081 376.525 114.921 374.793 116.054L376.984 119.401ZM381.618 117.39C383.48 116.907 385.44 116.565 387.501 116.366L387.117 112.384C384.86 112.602 382.691 112.979 380.613 113.519L381.618 117.39ZM387.517 116.364C390.067 116.098 392.143 115.848 393.735 115.615L393.156 111.657C391.641 111.879 389.626 112.122 387.101 112.386L387.517 116.364ZM393.758 115.612C395.394 115.352 396.875 114.938 397.946 114.214L395.706 110.9C395.376 111.123 394.603 111.428 393.132 111.661L393.758 115.612ZM397.946 114.214C399.257 113.328 399.877 111.971 399.877 110.455H395.877C395.877 110.665 395.838 110.756 395.825 110.782C395.816 110.8 395.795 110.84 395.706 110.9L397.946 114.214ZM399.877 110.455V110.284H395.877V110.455H399.877ZM399.877 110.284C399.877 108.03 399.144 106.036 397.482 104.597L394.863 107.619C395.474 108.149 395.877 108.94 395.877 110.284H399.877ZM397.495 104.608C395.892 103.195 393.763 102.631 391.4 102.631V106.631C393.165 106.631 394.218 107.051 394.85 107.608L397.495 104.608ZM391.4 102.631C388.94 102.631 386.739 103.176 385.001 104.48L387.401 107.68C388.239 107.051 389.504 106.631 391.4 106.631V102.631ZM385.016 104.468C383.399 105.658 382.271 107.211 381.723 109.103L385.565 110.215C385.851 109.228 386.428 108.395 387.386 107.691L385.016 104.468ZM383.806 107.666L372.613 106.757L372.289 110.743L383.482 111.653L383.806 107.666ZM374.407 109.169C374.909 106.824 375.884 104.843 377.318 103.181L374.289 100.569C372.389 102.77 371.129 105.373 370.495 108.331L374.407 109.169ZM377.324 103.174C378.757 101.496 380.627 100.18 382.988 99.2461L381.516 95.5267C378.612 96.6757 376.183 98.3521 374.283 100.576L377.324 103.174ZM382.995 99.2433C385.364 98.2955 388.172 97.7955 391.457 97.7955V93.7955C387.772 93.7955 384.443 94.356 381.509 95.5294L382.995 99.2433ZM391.457 97.7955C393.723 97.7955 395.876 98.0609 397.92 98.5851L398.914 94.7104C396.526 94.0982 394.038 93.7955 391.457 93.7955V97.7955ZM397.924 98.5861C399.951 99.1014 401.707 99.8896 403.216 100.934L405.493 97.6454C403.555 96.3036 401.352 95.3304 398.91 94.7094L397.924 98.5861ZM403.224 100.94C404.7 101.951 405.857 103.242 406.71 104.836L410.237 102.948C409.083 100.792 407.493 99.0153 405.484 97.6396L403.224 100.94ZM406.715 104.843C407.528 106.347 407.979 108.23 407.979 110.568H411.979C411.979 107.717 411.427 105.149 410.233 102.941L406.715 104.843ZM407.979 110.568V140H411.979V110.568H407.979ZM409.979 138H398.502V142H409.979V138ZM400.502 140V133.949H396.502V140H400.502ZM398.502 131.949H398.161V135.949H398.502V131.949ZM396.382 133.035C395.798 134.173 395.015 135.179 394.021 136.061L396.676 139.053C398.031 137.851 399.123 136.452 399.94 134.863L396.382 133.035ZM394.035 136.049C393.071 136.888 391.885 137.574 390.444 138.088L391.787 141.856C393.642 141.195 395.277 140.271 396.662 139.065L394.035 136.049ZM390.464 138.081C389.069 138.562 387.394 138.824 385.406 138.824V142.824C387.736 142.824 389.867 142.518 391.768 141.862L390.464 138.081ZM388.871 134.472C390.918 134.472 392.813 134.067 394.501 133.199L392.673 129.642C391.635 130.175 390.385 130.472 388.871 130.472V134.472ZM394.521 133.189C396.168 132.32 397.506 131.125 398.482 129.602L395.114 127.444C394.537 128.344 393.734 129.081 392.654 129.652L394.521 133.189ZM398.482 129.602C399.478 128.046 399.962 126.294 399.962 124.403H395.962C395.962 125.581 395.67 126.575 395.114 127.444L398.482 129.602ZM399.962 124.403V119.773H395.962V124.403H399.962ZM396.872 118.096C396.704 118.205 396.372 118.367 395.8 118.547L397 122.363C397.753 122.126 398.463 121.833 399.052 121.45L396.872 118.096ZM395.836 118.536C395.253 118.707 394.577 118.875 393.803 119.037L394.622 122.952C395.477 122.773 396.259 122.581 396.964 122.373L395.836 118.536ZM393.847 119.028C393.047 119.177 392.247 119.316 391.448 119.446L392.091 123.394C392.92 123.259 393.749 123.115 394.578 122.961L393.847 119.028ZM391.493 119.44C390.677 119.554 389.936 119.658 389.27 119.753L389.836 123.713C390.496 123.619 391.233 123.515 392.046 123.401L391.493 119.44ZM389.263 119.754C387.711 119.982 386.297 120.352 385.044 120.889L386.62 124.566C387.488 124.193 388.555 123.901 389.843 123.712L389.263 119.754ZM385.044 120.889C383.723 121.455 382.597 122.266 381.765 123.368L384.955 125.78C385.297 125.328 385.819 124.909 386.62 124.566L385.044 120.889ZM381.779 123.349C380.872 124.519 380.479 125.92 380.479 127.415H384.479C384.479 126.637 384.674 126.144 384.941 125.799L381.779 123.349ZM380.479 127.415C380.479 129.616 381.316 131.513 383.09 132.808L385.449 129.578C384.836 129.131 384.479 128.509 384.479 127.415H380.479ZM383.119 132.829C384.744 133.972 386.708 134.472 388.871 134.472V130.472C387.322 130.472 386.218 130.119 385.42 129.557L383.119 132.829ZM431.471 114.773L429.471 114.753L429.471 114.763V114.773H431.471ZM431.471 140V142H433.471V140H431.471ZM419.369 140H417.369V142H419.369V140ZM419.369 96.3636V94.3636H417.369V96.3636H419.369ZM430.903 96.3636H432.903V94.3636H430.903V96.3636ZM430.903 104.062H428.903V106.062H430.903V104.062ZM431.414 104.062V106.062H432.793L433.283 104.774L431.414 104.062ZM436.272 98.0398L437.362 99.7167L437.372 99.7103L436.272 98.0398ZM452.465 97.7841L453.479 96.0602L452.465 97.7841ZM457.721 103.466L455.938 104.371L455.94 104.377L457.721 103.466ZM459.596 140V142H461.596V140H459.596ZM447.494 140H445.494V142H447.494V140ZM447.494 114.375L445.494 114.361L445.494 114.368V114.375H447.494ZM445.448 108.125L443.971 109.473L443.979 109.482L445.448 108.125ZM435.42 106.903L434.442 105.159L434.43 105.165L435.42 106.903ZM432.522 109.972L430.748 109.047L430.743 109.057L432.522 109.972ZM429.471 114.773V140H433.471V114.773H429.471ZM431.471 138H419.369V142H431.471V138ZM421.369 140V96.3636H417.369V140H421.369ZM419.369 98.3636H430.903V94.3636H419.369V98.3636ZM428.903 96.3636V104.062H432.903V96.3636H428.903ZM430.903 106.062H431.414V102.062H430.903V106.062ZM433.283 104.774C434.099 102.632 435.445 100.962 437.362 99.7167L435.182 96.3629C432.553 98.0717 430.661 100.418 429.545 103.351L433.283 104.774ZM437.372 99.7103C439.26 98.4671 441.616 97.7955 444.539 97.7955V93.7955C440.985 93.7955 437.829 94.62 435.172 96.3693L437.372 99.7103ZM444.539 97.7955C447.27 97.7955 449.551 98.39 451.451 99.508L453.479 96.0602C450.872 94.5266 447.869 93.7955 444.539 93.7955V97.7955ZM451.451 99.508C453.357 100.629 454.85 102.23 455.938 104.371L459.504 102.561C458.091 99.7777 456.081 97.5908 453.479 96.0602L451.451 99.508ZM455.94 104.377C457.016 106.479 457.596 109.069 457.596 112.216H461.596C461.596 108.582 460.926 105.339 459.501 102.555L455.94 104.377ZM457.596 112.216V140H461.596V112.216H457.596ZM459.596 138H447.494V142H459.596V138ZM449.494 140V114.375H445.494V140H449.494ZM449.494 114.389C449.515 111.373 448.741 108.741 446.917 106.768L443.979 109.482C444.921 110.501 445.51 112.036 445.494 114.361L449.494 114.389ZM446.926 106.777C445.095 104.771 442.613 103.852 439.738 103.852V107.852C441.712 107.852 443.036 108.449 443.971 109.473L446.926 106.777ZM439.738 103.852C437.814 103.852 436.029 104.269 434.442 105.159L436.398 108.648C437.31 108.136 438.404 107.852 439.738 107.852V103.852ZM434.43 105.165C432.841 106.07 431.614 107.387 430.748 109.047L434.296 110.896C434.832 109.867 435.536 109.139 436.409 108.642L434.43 105.165ZM430.743 109.057C429.887 110.722 429.492 112.644 429.471 114.753L433.471 114.793C433.487 113.151 433.793 111.873 434.301 110.886L430.743 109.057ZM480.1 127.443L478.1 127.439L478.09 132.774L481.605 128.761L480.1 127.443ZM480.129 112.926V110.926H478.132L478.129 112.922L480.129 112.926ZM481.89 112.926V114.926H482.819L483.418 114.216L481.89 112.926ZM495.867 96.3636V94.3636H494.938L494.339 95.0737L495.867 96.3636ZM509.759 96.3636L511.278 97.6644L514.105 94.3636H509.759V96.3636ZM490.981 118.295V120.295H491.901L492.5 119.596L490.981 118.295ZM488.112 118.295V116.295H487.205L486.607 116.978L488.112 118.295ZM469.134 140H467.134V142H469.134V140ZM469.134 81.8182V79.8182H467.134V81.8182H469.134ZM481.237 81.8182H483.237V79.8182H481.237V81.8182ZM481.237 140V142H483.237V140H481.237ZM496.407 140L494.75 141.12L495.345 142H496.407V140ZM483.566 120.994L482.111 119.622L481.012 120.787L481.909 122.114L483.566 120.994ZM491.634 112.443L493.282 111.31L491.879 109.269L490.18 111.071L491.634 112.443ZM510.583 140V142H514.386L512.231 138.867L510.583 140ZM482.1 127.447L482.129 112.93L478.129 112.922L478.1 127.439L482.1 127.447ZM480.129 114.926H481.89V110.926H480.129V114.926ZM483.418 114.216L497.396 97.6535L494.339 95.0737L480.361 111.636L483.418 114.216ZM495.867 98.3636H509.759V94.3636H495.867V98.3636ZM508.24 95.0629L489.462 116.995L492.5 119.596L511.278 97.6644L508.24 95.0629ZM490.981 116.295H488.112V120.295H490.981V116.295ZM486.607 116.978L478.596 126.126L481.605 128.761L489.616 119.613L486.607 116.978ZM471.134 140V81.8182H467.134V140H471.134ZM469.134 83.8182H481.237V79.8182H469.134V83.8182ZM479.237 81.8182V140H483.237V81.8182H479.237ZM481.237 138H469.134V142H481.237V138ZM498.064 138.88L485.223 119.875L481.909 122.114L494.75 141.12L498.064 138.88ZM485.021 122.367L493.089 113.816L490.18 111.071L482.111 119.622L485.021 122.367ZM489.986 113.576L508.935 141.133L512.231 138.867L493.282 111.31L489.986 113.576ZM510.583 138H496.407V142H510.583V138Z" fill="#EEF1F9" mask="url(#path-7-outside-3_1616_144)"/>
</g>
<defs>
<filter id="filter0_d_1616_144" x="0" y="0" width="530.385" height="216.801" filterUnits="userSpaceOnUse" color-interpolation-filters="sRGB">
<feFlood flood-opacity="0" result="BackgroundImageFix"/>
<feColorMatrix in="SourceAlpha" type="matrix" values="0 0 0 0 0 0 0 0 0 0 0 0 0 0 0 0 0 0 127 0" result="hardAlpha"/>
<feOffset dy="8"/>
<feGaussianBlur stdDeviation="8"/>
<feComposite in2="hardAlpha" operator="out"/>
<feColorMatrix type="matrix" values="0 0 0 0 0 0 0 0 0 0 0 0 0 0 0 0 0 0 1 0"/>
<feBlend mode="normal" in2="BackgroundImageFix" result="effect1_dropShadow_1616_144"/>
<feBlend mode="normal" in="SourceGraphic" in2="effect1_dropShadow_1616_144" result="shape"/>
</filter>
<filter id="filter1_d_1616_144" x="12" y="8" width="156.846" height="192.801" filterUnits="userSpaceOnUse" color-interpolation-filters="sRGB">
<feFlood flood-opacity="0" result="BackgroundImageFix"/>
<feColorMatrix in="SourceAlpha" type="matrix" values="0 0 0 0 0 0 0 0 0 0 0 0 0 0 0 0 0 0 127 0" result="hardAlpha"/>
<feOffset dy="4"/>
<feGaussianBlur stdDeviation="2"/>
<feComposite in2="hardAlpha" operator="out"/>
<feColorMatrix type="matrix" values="0 0 0 0 0 0 0 0 0 0 0 0 0 0 0 0 0 0 0.25 0"/>
<feBlend mode="normal" in2="BackgroundImageFix" result="effect1_dropShadow_1616_144"/>
<feBlend mode="normal" in="SourceGraphic" in2="effect1_dropShadow_1616_144" result="shape"/>
</filter>
<filter id="filter2_d_1616_144" x="80.6426" y="26.6055" width="126.422" height="155.84" filterUnits="userSpaceOnUse" color-interpolation-filters="sRGB">
<feFlood flood-opacity="0" result="BackgroundImageFix"/>
<feColorMatrix in="SourceAlpha" type="matrix" values="0 0 0 0 0 0 0 0 0 0 0 0 0 0 0 0 0 0 127 0" result="hardAlpha"/>
<feOffset dy="4"/>
<feGaussianBlur stdDeviation="2"/>
<feComposite in2="hardAlpha" operator="out"/>
<feColorMatrix type="matrix" values="0 0 0 0 0 0 0 0 0 0 0 0 0 0 0 0 0 0 0.25 0"/>
<feBlend mode="normal" in2="BackgroundImageFix" result="effect1_dropShadow_1616_144"/>
<feBlend mode="normal" in="SourceGraphic" in2="effect1_dropShadow_1616_144" result="shape"/>
</filter>
<filter id="filter3_d_1616_144" x="65.041" y="80.6621" width="43.2227" height="43.2227" filterUnits="userSpaceOnUse" color-interpolation-filters="sRGB">
<feFlood flood-opacity="0" result="BackgroundImageFix"/>
<feColorMatrix in="SourceAlpha" type="matrix" values="0 0 0 0 0 0 0 0 0 0 0 0 0 0 0 0 0 0 127 0" result="hardAlpha"/>
<feOffset dy="2"/>
<feGaussianBlur stdDeviation="1"/>
<feComposite in2="hardAlpha" operator="out"/>
<feColorMatrix type="matrix" values="0 0 0 0 0 0 0 0 0 0 0 0 0 0 0 0 0 0 0.5 0"/>
<feBlend mode="normal" in2="BackgroundImageFix" result="effect1_dropShadow_1616_144"/>
<feBlend mode="normal" in="SourceGraphic" in2="effect1_dropShadow_1616_144" result="shape"/>
</filter>
<filter id="filter4_d_1616_144" x="110.301" y="81.166" width="43.9766" height="42.4688" filterUnits="userSpaceOnUse" color-interpolation-filters="sRGB">
<feFlood flood-opacity="0" result="BackgroundImageFix"/>
<feColorMatrix in="SourceAlpha" type="matrix" values="0 0 0 0 0 0 0 0 0 0 0 0 0 0 0 0 0 0 127 0" result="hardAlpha"/>
<feOffset dy="2"/>
<feGaussianBlur stdDeviation="1"/>
<feComposite in2="hardAlpha" operator="out"/>
<feColorMatrix type="matrix" values="0 0 0 0 0 0 0 0 0 0 0 0 0 0 0 0 0 0 0.5 0"/>
<feBlend mode="normal" in2="BackgroundImageFix" result="effect1_dropShadow_1616_144"/>
<feBlend mode="normal" in="SourceGraphic" in2="effect1_dropShadow_1616_144" result="shape"/>
</filter>
<filter id="filter5_d_1616_144" x="300.629" y="61" width="67.1094" height="82.6973" filterUnits="userSpaceOnUse" color-interpolation-filters="sRGB">
<feFlood flood-opacity="0" result="BackgroundImageFix"/>
<feColorMatrix in="SourceAlpha" type="matrix" values="0 0 0 0 0 0 0 0 0 0 0 0 0 0 0 0 0 0 127 0" result="hardAlpha"/>
<feOffset dy="2"/>
<feGaussianBlur stdDeviation="1"/>
<feComposite in2="hardAlpha" operator="out"/>
<feColorMatrix type="matrix" values="0 0 0 0 0 0 0 0 0 0 0 0 0 0 0 0 0 0 0.5 0"/>
<feBlend mode="normal" in2="BackgroundImageFix" result="effect1_dropShadow_1616_144"/>
<feBlend mode="normal" in="SourceGraphic" in2="effect1_dropShadow_1616_144" result="shape"/>
</filter>
<filter id="filter6_d_1616_144" x="219.672" y="61" width="73.3945" height="82.6973" filterUnits="userSpaceOnUse" color-interpolation-filters="sRGB">
<feFlood flood-opacity="0" result="BackgroundImageFix"/>
<feColorMatrix in="SourceAlpha" type="matrix" values="0 0 0 0 0 0 0 0 0 0 0 0 0 0 0 0 0 0 127 0" result="hardAlpha"/>
<feOffset dy="2"/>
<feGaussianBlur stdDeviation="1"/>
<feComposite in2="hardAlpha" operator="out"/>
<feColorMatrix type="matrix" values="0 0 0 0 0 0 0 0 0 0 0 0 0 0 0 0 0 0 0.5 0"/>
<feBlend mode="normal" in2="BackgroundImageFix" result="effect1_dropShadow_1616_144"/>
<feBlend mode="normal" in="SourceGraphic" in2="effect1_dropShadow_1616_144" result="shape"/>
</filter>
</defs>
</svg>
