<svg width="196" height="193" viewBox="0 0 196 193" fill="none" xmlns="http://www.w3.org/2000/svg">
<g filter="url(#filter0_d_1616_125)">
<mask id="path-1-inside-1_1616_125" fill="white">
<path d="M92 0H103.314L109.349 0.502857L117.394 1.76L124.686 3.52L130.469 5.53143L135.497 7.79428L141.029 10.56L146.811 13.8286L150.08 15.84L152.343 17.6L152.846 18.6057L151.588 18.3543L144.548 15.0857L137.509 12.5714L131.726 11.0629L126.446 10.0571L122.171 9.55428L116.64 9.30285H109.6L102.309 9.80571L96.2742 10.8114L89.2342 12.5714L83.4514 14.5828L77.1657 17.3486L72.8914 19.6114L68.8685 22.1257L64.8457 24.8914L62.3314 26.9028L59.5657 29.1657L57.0514 31.4286L55.04 33.1886L52.2743 35.9543L50.5143 37.9657L47.4971 41.7371L44.48 46.0114L40.7086 52.2971L37.6914 58.08L35.1771 64.1143L33.1657 70.4L31.9086 76.1828L30.6514 83.4742L30.1486 88.5028V96.2971L30.9028 103.086L32.4114 111.131L33.92 116.914L35.9314 122.697L38.4457 128.48L41.2114 133.76L43.9771 138.286L46.4914 141.806L49.2571 145.326L52.0228 148.343L53.7828 150.354L56.8 153.371L58.8114 155.131L62.3314 158.148L66.8571 161.417L71.3828 164.183L77.4171 167.451L82.4457 169.714L91.4971 172.731L99.04 174.491L103.566 175.246L106.08 175.497H120.663L126.949 174.743L132.983 173.486L141.28 170.971L146.308 168.96L150.331 166.948L152.091 166.446L152.343 166.948L151.086 168.206L146.308 171.223L141.029 174.24L134.743 177.257L127.451 180.023L122.171 181.783L116.137 183.291L109.349 184.297L103.817 184.8H87.4742L80.9371 184.046L74.1485 182.537L68.1143 180.777L61.0743 178.011L53.7828 174.491L49.0057 171.977L43.9771 168.708L40.4571 166.194L36.4343 162.926L33.6686 160.663L27.8857 154.88L25.6228 152.114L22.8571 148.594L20.0914 144.823L17.0743 140.046L14.0571 134.766L11.04 128.229L9.02857 122.949L7.26857 116.663L5.50857 109.12L4.25143 101.577L4 98.5599V86.9942L4.25143 82.72L5.76 73.6685L7.77143 65.6228L10.0343 59.0857L12.5486 53.3028L14.56 49.0285L18.08 42.9943L20.5943 39.2228L23.1086 35.9543L26.3771 31.9314L30.1486 27.9086L36.1828 21.8743L40.4571 18.6057L44.48 15.5886L49.76 12.32L56.2971 8.8L61.3257 6.53714L66.6057 4.52571L70.3771 3.26857L77.6685 1.50857L83.9542 0.502857L86.4685 0.251428L92 0Z"/>
</mask>
<path d="M92 0H103.314L109.349 0.502857L117.394 1.76L124.686 3.52L130.469 5.53143L135.497 7.79428L141.029 10.56L146.811 13.8286L150.08 15.84L152.343 17.6L152.846 18.6057L151.588 18.3543L144.548 15.0857L137.509 12.5714L131.726 11.0629L126.446 10.0571L122.171 9.55428L116.64 9.30285H109.6L102.309 9.80571L96.2742 10.8114L89.2342 12.5714L83.4514 14.5828L77.1657 17.3486L72.8914 19.6114L68.8685 22.1257L64.8457 24.8914L62.3314 26.9028L59.5657 29.1657L57.0514 31.4286L55.04 33.1886L52.2743 35.9543L50.5143 37.9657L47.4971 41.7371L44.48 46.0114L40.7086 52.2971L37.6914 58.08L35.1771 64.1143L33.1657 70.4L31.9086 76.1828L30.6514 83.4742L30.1486 88.5028V96.2971L30.9028 103.086L32.4114 111.131L33.92 116.914L35.9314 122.697L38.4457 128.48L41.2114 133.76L43.9771 138.286L46.4914 141.806L49.2571 145.326L52.0228 148.343L53.7828 150.354L56.8 153.371L58.8114 155.131L62.3314 158.148L66.8571 161.417L71.3828 164.183L77.4171 167.451L82.4457 169.714L91.4971 172.731L99.04 174.491L103.566 175.246L106.08 175.497H120.663L126.949 174.743L132.983 173.486L141.28 170.971L146.308 168.96L150.331 166.948L152.091 166.446L152.343 166.948L151.086 168.206L146.308 171.223L141.029 174.24L134.743 177.257L127.451 180.023L122.171 181.783L116.137 183.291L109.349 184.297L103.817 184.8H87.4742L80.9371 184.046L74.1485 182.537L68.1143 180.777L61.0743 178.011L53.7828 174.491L49.0057 171.977L43.9771 168.708L40.4571 166.194L36.4343 162.926L33.6686 160.663L27.8857 154.88L25.6228 152.114L22.8571 148.594L20.0914 144.823L17.0743 140.046L14.0571 134.766L11.04 128.229L9.02857 122.949L7.26857 116.663L5.50857 109.12L4.25143 101.577L4 98.5599V86.9942L4.25143 82.72L5.76 73.6685L7.77143 65.6228L10.0343 59.0857L12.5486 53.3028L14.56 49.0285L18.08 42.9943L20.5943 39.2228L23.1086 35.9543L26.3771 31.9314L30.1486 27.9086L36.1828 21.8743L40.4571 18.6057L44.48 15.5886L49.76 12.32L56.2971 8.8L61.3257 6.53714L66.6057 4.52571L70.3771 3.26857L77.6685 1.50857L83.9542 0.502857L86.4685 0.251428L92 0Z" fill="#47A138"/>
<path d="M92 0H103.314L109.349 0.502857L117.394 1.76L124.686 3.52L130.469 5.53143L135.497 7.79428L141.029 10.56L146.811 13.8286L150.08 15.84L152.343 17.6L152.846 18.6057L151.588 18.3543L144.548 15.0857L137.509 12.5714L131.726 11.0629L126.446 10.0571L122.171 9.55428L116.64 9.30285H109.6L102.309 9.80571L96.2742 10.8114L89.2342 12.5714L83.4514 14.5828L77.1657 17.3486L72.8914 19.6114L68.8685 22.1257L64.8457 24.8914L62.3314 26.9028L59.5657 29.1657L57.0514 31.4286L55.04 33.1886L52.2743 35.9543L50.5143 37.9657L47.4971 41.7371L44.48 46.0114L40.7086 52.2971L37.6914 58.08L35.1771 64.1143L33.1657 70.4L31.9086 76.1828L30.6514 83.4742L30.1486 88.5028V96.2971L30.9028 103.086L32.4114 111.131L33.92 116.914L35.9314 122.697L38.4457 128.48L41.2114 133.76L43.9771 138.286L46.4914 141.806L49.2571 145.326L52.0228 148.343L53.7828 150.354L56.8 153.371L58.8114 155.131L62.3314 158.148L66.8571 161.417L71.3828 164.183L77.4171 167.451L82.4457 169.714L91.4971 172.731L99.04 174.491L103.566 175.246L106.08 175.497H120.663L126.949 174.743L132.983 173.486L141.28 170.971L146.308 168.96L150.331 166.948L152.091 166.446L152.343 166.948L151.086 168.206L146.308 171.223L141.029 174.24L134.743 177.257L127.451 180.023L122.171 181.783L116.137 183.291L109.349 184.297L103.817 184.8H87.4742L80.9371 184.046L74.1485 182.537L68.1143 180.777L61.0743 178.011L53.7828 174.491L49.0057 171.977L43.9771 168.708L40.4571 166.194L36.4343 162.926L33.6686 160.663L27.8857 154.88L25.6228 152.114L22.8571 148.594L20.0914 144.823L17.0743 140.046L14.0571 134.766L11.04 128.229L9.02857 122.949L7.26857 116.663L5.50857 109.12L4.25143 101.577L4 98.5599V86.9942L4.25143 82.72L5.76 73.6685L7.77143 65.6228L10.0343 59.0857L12.5486 53.3028L14.56 49.0285L18.08 42.9943L20.5943 39.2228L23.1086 35.9543L26.3771 31.9314L30.1486 27.9086L36.1828 21.8743L40.4571 18.6057L44.48 15.5886L49.76 12.32L56.2971 8.8L61.3257 6.53714L66.6057 4.52571L70.3771 3.26857L77.6685 1.50857L83.9542 0.502857L86.4685 0.251428L92 0Z" stroke="#EEF1F9" stroke-width="4" mask="url(#path-1-inside-1_1616_125)"/>
</g>
<g filter="url(#filter1_d_1616_125)">
<mask id="path-2-inside-2_1616_125" fill="white">
<path d="M109.351 18.6055H122.928L130.722 19.3597L137.762 20.8683L146.059 23.634L150.836 25.8969L156.871 29.4168L160.642 31.9311L163.911 34.4454L167.431 37.4625L173.213 43.2453L175.476 46.011L178.242 49.531L181.259 54.3081L183.773 58.8338L185.785 63.108L188.048 69.3937L189.556 74.6737L190.813 81.2108L191.065 84.2279V100.068L190.562 104.845L189.053 111.633L187.293 117.416L184.779 123.702L182.768 127.725L180.505 131.748L176.985 136.776L173.716 140.799L170.699 144.068L166.425 148.342L163.659 150.605L159.888 153.37L154.356 156.89L147.568 160.41L140.276 163.176L134.996 164.685L129.968 165.69L123.431 166.445H113.122L107.088 165.942L101.054 164.936L93.511 162.925L86.9739 160.41L80.6882 157.393L77.1683 155.382L73.6483 152.867L72.6426 152.113V151.61L74.1511 151.862L77.9225 153.622L81.6939 155.13L89.4882 157.393L97.031 158.65L100.048 158.902H110.608L116.642 157.896L123.431 156.136L128.962 154.125L135.248 151.107L140.528 148.09L143.545 146.079L146.059 144.068L148.574 141.805L154.356 136.022L157.122 132.502L160.139 128.228L162.402 124.205L165.419 117.919L167.179 113.142L168.688 107.359L169.945 100.822L170.448 97.5535V87.9993L169.191 79.7022L167.431 72.6623L164.916 65.8737L162.905 61.8509L160.893 58.0795L158.631 54.5595L156.116 51.291L153.351 48.0224L149.831 44.251L146.562 41.2339L142.791 38.4682L138.516 35.7025L133.236 32.6854L128.208 30.4225L121.419 28.1597L115.888 26.9026L110.105 26.1483H97.5338L91.4996 26.9026L86.9739 27.9083L80.1854 30.1711L74.9054 32.434H73.6483L73.8997 31.4282L77.9225 29.1654L83.9568 25.8969L89.4882 23.3826L97.7853 20.6169L104.825 19.1083L109.351 18.6055Z"/>
</mask>
<path d="M109.351 18.6055H122.928L130.722 19.3597L137.762 20.8683L146.059 23.634L150.836 25.8969L156.871 29.4168L160.642 31.9311L163.911 34.4454L167.431 37.4625L173.213 43.2453L175.476 46.011L178.242 49.531L181.259 54.3081L183.773 58.8338L185.785 63.108L188.048 69.3937L189.556 74.6737L190.813 81.2108L191.065 84.2279V100.068L190.562 104.845L189.053 111.633L187.293 117.416L184.779 123.702L182.768 127.725L180.505 131.748L176.985 136.776L173.716 140.799L170.699 144.068L166.425 148.342L163.659 150.605L159.888 153.37L154.356 156.89L147.568 160.41L140.276 163.176L134.996 164.685L129.968 165.69L123.431 166.445H113.122L107.088 165.942L101.054 164.936L93.511 162.925L86.9739 160.41L80.6882 157.393L77.1683 155.382L73.6483 152.867L72.6426 152.113V151.61L74.1511 151.862L77.9225 153.622L81.6939 155.13L89.4882 157.393L97.031 158.65L100.048 158.902H110.608L116.642 157.896L123.431 156.136L128.962 154.125L135.248 151.107L140.528 148.09L143.545 146.079L146.059 144.068L148.574 141.805L154.356 136.022L157.122 132.502L160.139 128.228L162.402 124.205L165.419 117.919L167.179 113.142L168.688 107.359L169.945 100.822L170.448 97.5535V87.9993L169.191 79.7022L167.431 72.6623L164.916 65.8737L162.905 61.8509L160.893 58.0795L158.631 54.5595L156.116 51.291L153.351 48.0224L149.831 44.251L146.562 41.2339L142.791 38.4682L138.516 35.7025L133.236 32.6854L128.208 30.4225L121.419 28.1597L115.888 26.9026L110.105 26.1483H97.5338L91.4996 26.9026L86.9739 27.9083L80.1854 30.1711L74.9054 32.434H73.6483L73.8997 31.4282L77.9225 29.1654L83.9568 25.8969L89.4882 23.3826L97.7853 20.6169L104.825 19.1083L109.351 18.6055Z" fill="#47A138"/>
<path d="M109.351 18.6055H122.928L130.722 19.3597L137.762 20.8683L146.059 23.634L150.836 25.8969L156.871 29.4168L160.642 31.9311L163.911 34.4454L167.431 37.4625L173.213 43.2453L175.476 46.011L178.242 49.531L181.259 54.3081L183.773 58.8338L185.785 63.108L188.048 69.3937L189.556 74.6737L190.813 81.2108L191.065 84.2279V100.068L190.562 104.845L189.053 111.633L187.293 117.416L184.779 123.702L182.768 127.725L180.505 131.748L176.985 136.776L173.716 140.799L170.699 144.068L166.425 148.342L163.659 150.605L159.888 153.37L154.356 156.89L147.568 160.41L140.276 163.176L134.996 164.685L129.968 165.69L123.431 166.445H113.122L107.088 165.942L101.054 164.936L93.511 162.925L86.9739 160.41L80.6882 157.393L77.1683 155.382L73.6483 152.867L72.6426 152.113V151.61L74.1511 151.862L77.9225 153.622L81.6939 155.13L89.4882 157.393L97.031 158.65L100.048 158.902H110.608L116.642 157.896L123.431 156.136L128.962 154.125L135.248 151.107L140.528 148.09L143.545 146.079L146.059 144.068L148.574 141.805L154.356 136.022L157.122 132.502L160.139 128.228L162.402 124.205L165.419 117.919L167.179 113.142L168.688 107.359L169.945 100.822L170.448 97.5535V87.9993L169.191 79.7022L167.431 72.6623L164.916 65.8737L162.905 61.8509L160.893 58.0795L158.631 54.5595L156.116 51.291L153.351 48.0224L149.831 44.251L146.562 41.2339L142.791 38.4682L138.516 35.7025L133.236 32.6854L128.208 30.4225L121.419 28.1597L115.888 26.9026L110.105 26.1483H97.5338L91.4996 26.9026L86.9739 27.9083L80.1854 30.1711L74.9054 32.434H73.6483L73.8997 31.4282L77.9225 29.1654L83.9568 25.8969L89.4882 23.3826L97.7853 20.6169L104.825 19.1083L109.351 18.6055Z" stroke="#EEF1F9" stroke-width="4" mask="url(#path-2-inside-2_1616_125)"/>
</g>
<g filter="url(#filter2_d_1616_125)">
<path d="M55.5439 72.6621H60.8238L61.0752 72.9135V90.0104H89.2348L89.4862 72.9135H93.2576L94.2633 73.165V111.884H89.4862V97.0503L89.7376 95.2903H61.0752L61.3266 105.599V111.633L61.0752 111.884H55.2924L55.041 73.4164L55.5439 72.6621Z" fill="#EEF1F9"/>
</g>
<g filter="url(#filter3_d_1616_125)">
<path d="M113.123 73.166H129.215L140.277 73.4174V75.6803L140.026 78.4459L128.46 78.6974L123.432 78.9488L123.18 111.383L122.929 111.634H117.398L117.146 111.383V78.6974H102.061L100.301 78.1945V74.6746L100.552 73.4174L113.123 73.166Z" fill="#EEF1F9"/>
</g>
<defs>
<filter id="filter0_d_1616_125" x="0" y="0" width="156.846" height="192.801" filterUnits="userSpaceOnUse" color-interpolation-filters="sRGB">
<feFlood flood-opacity="0" result="BackgroundImageFix"/>
<feColorMatrix in="SourceAlpha" type="matrix" values="0 0 0 0 0 0 0 0 0 0 0 0 0 0 0 0 0 0 127 0" result="hardAlpha"/>
<feOffset dy="4"/>
<feGaussianBlur stdDeviation="2"/>
<feComposite in2="hardAlpha" operator="out"/>
<feColorMatrix type="matrix" values="0 0 0 0 0 0 0 0 0 0 0 0 0 0 0 0 0 0 0.25 0"/>
<feBlend mode="normal" in2="BackgroundImageFix" result="effect1_dropShadow_1616_125"/>
<feBlend mode="normal" in="SourceGraphic" in2="effect1_dropShadow_1616_125" result="shape"/>
</filter>
<filter id="filter1_d_1616_125" x="68.6426" y="18.6055" width="126.422" height="155.84" filterUnits="userSpaceOnUse" color-interpolation-filters="sRGB">
<feFlood flood-opacity="0" result="BackgroundImageFix"/>
<feColorMatrix in="SourceAlpha" type="matrix" values="0 0 0 0 0 0 0 0 0 0 0 0 0 0 0 0 0 0 127 0" result="hardAlpha"/>
<feOffset dy="4"/>
<feGaussianBlur stdDeviation="2"/>
<feComposite in2="hardAlpha" operator="out"/>
<feColorMatrix type="matrix" values="0 0 0 0 0 0 0 0 0 0 0 0 0 0 0 0 0 0 0.25 0"/>
<feBlend mode="normal" in2="BackgroundImageFix" result="effect1_dropShadow_1616_125"/>
<feBlend mode="normal" in="SourceGraphic" in2="effect1_dropShadow_1616_125" result="shape"/>
</filter>
<filter id="filter2_d_1616_125" x="53.041" y="72.6621" width="43.2227" height="43.2227" filterUnits="userSpaceOnUse" color-interpolation-filters="sRGB">
<feFlood flood-opacity="0" result="BackgroundImageFix"/>
<feColorMatrix in="SourceAlpha" type="matrix" values="0 0 0 0 0 0 0 0 0 0 0 0 0 0 0 0 0 0 127 0" result="hardAlpha"/>
<feOffset dy="2"/>
<feGaussianBlur stdDeviation="1"/>
<feComposite in2="hardAlpha" operator="out"/>
<feColorMatrix type="matrix" values="0 0 0 0 0 0 0 0 0 0 0 0 0 0 0 0 0 0 0.5 0"/>
<feBlend mode="normal" in2="BackgroundImageFix" result="effect1_dropShadow_1616_125"/>
<feBlend mode="normal" in="SourceGraphic" in2="effect1_dropShadow_1616_125" result="shape"/>
</filter>
<filter id="filter3_d_1616_125" x="98.3008" y="73.166" width="43.9766" height="42.4688" filterUnits="userSpaceOnUse" color-interpolation-filters="sRGB">
<feFlood flood-opacity="0" result="BackgroundImageFix"/>
<feColorMatrix in="SourceAlpha" type="matrix" values="0 0 0 0 0 0 0 0 0 0 0 0 0 0 0 0 0 0 127 0" result="hardAlpha"/>
<feOffset dy="2"/>
<feGaussianBlur stdDeviation="1"/>
<feComposite in2="hardAlpha" operator="out"/>
<feColorMatrix type="matrix" values="0 0 0 0 0 0 0 0 0 0 0 0 0 0 0 0 0 0 0.5 0"/>
<feBlend mode="normal" in2="BackgroundImageFix" result="effect1_dropShadow_1616_125"/>
<feBlend mode="normal" in="SourceGraphic" in2="effect1_dropShadow_1616_125" result="shape"/>
</filter>
</defs>
</svg>
